<svg width="22" height="30" viewBox="0 0 22 30" fill="none" xmlns="http://www.w3.org/2000/svg">
<path d="M21.969 25.9125L20.3697 8.35312C20.3265 7.86937 19.9215 7.5 19.4359 7.5H16.6234V5.625C16.6234 4.1175 16.0384 2.70375 14.979 1.64437C13.9365 0.6 12.4853 0 10.9984 0C7.89716 0 5.37341 2.52375 5.37341 5.625V7.5H2.56091C2.07528 7.5 1.67028 7.86937 1.62716 8.35312L0.0315307 25.9106C-0.0640943 26.9587 0.288406 28.0031 0.997156 28.7794C1.70591 29.5556 2.71465 30 3.76653 30H18.2322C19.2822 30 20.2909 29.5556 20.9997 28.7812C21.7103 28.005 22.0609 26.9587 21.969 25.9125ZM14.7484 7.5H7.2484V5.625C7.2484 3.55687 8.93028 1.875 10.9984 1.875C11.9922 1.875 12.9597 2.2725 13.6534 2.96812C14.3603 3.675 14.7484 4.61812 14.7484 5.625V7.5Z" fill="currentColor"/>
</svg>
